# Blender v2.76 (sub 0) OBJ File: ''
# www.blender.org
mtllib Brown_Cliff_Green_Top_01.mtl
o Mesh1_Brown_Cliff_Green_Top_Model
v -1.502944 -2.210479 -1.498687
v -2.282944 -2.210479 -1.498687
v -2.282944 -0.010478 -1.498687
v -1.502944 -0.010478 -1.498687
v -1.920285 -2.210479 0.226393
v -2.282944 -2.210479 -0.423007
v -2.136774 -2.210479 -0.885877
v -1.502944 -2.210479 1.501313
v -2.282944 -2.210479 1.501313
v -2.163995 -2.210479 1.129449
v -2.282944 -2.210479 0.800282
v -1.920285 -0.010479 0.226393
v -2.282944 -0.010479 -0.423007
v -2.282944 -0.010479 0.800282
v -2.163995 -0.010479 1.129449
v -2.282944 -0.010479 1.501313
v -1.502944 -0.010479 1.501313
v -2.136774 -0.010479 -0.885877
vt 0.037572 0.579508
vt 0.227273 1.363640
vt -0.060831 1.085090
vt -0.127273 0.318650
vt -0.073205 0.169029
vt -0.127273 0.874689
vt -0.127273 1.363640
vt -0.127273 -0.000000
vt 0.227273 -0.000000
vt 0.127273 -0.000000
vt 0.127273 1.000000
vt -0.227273 1.000000
vt -0.037572 0.579508
vt -0.227273 1.363640
vt -0.227273 -0.000000
vt -0.825729 1.000000
vt -0.825729 0.000000
vt -0.487638 0.000000
vt -0.509961 1.000000
vt -0.509961 0.000000
vt -0.201382 0.000000
vt -0.342938 1.000000
vt -0.342938 0.000000
vt -0.183847 -0.000000
vt -0.138690 1.000000
vt -0.138690 -0.000000
vt 0.038776 -0.000000
vt 0.227273 1.000000
vt -0.127273 1.000000
vt -0.000000 1.000000
vt -0.000000 -0.000000
vt 1.363640 -0.000000
vt -1.355950 1.000000
vt -1.355950 -0.000000
vt -1.069590 0.000000
vt -1.016400 1.000000
vt -1.016400 -0.000000
vt -0.795763 0.000000
vt 0.127273 0.874689
vt 0.060831 1.085090
vt 0.073205 0.169029
vt 0.127273 0.318650
vt 0.127273 1.363640
vt -0.487638 1.000000
vt -0.201382 1.000000
vt -0.183847 1.000000
vt 0.038776 1.000000
vt 1.363640 1.000000
vt -1.069590 1.000000
vt -0.795763 1.000000
vn -0.000000 1.000000 0.000000
vn 0.000000 0.000000 -1.000000
vn 0.000000 -1.000000 -0.000000
vn -0.873100 0.000000 0.487600
vn -0.845400 -0.000000 -0.534200
vn -0.940500 -0.000000 0.339900
vn -0.952500 0.000000 -0.304700
vn 0.000000 -0.000000 1.000000
vn 1.000000 0.000000 0.000000
vn -0.972700 0.000000 0.232000
vn -0.953600 0.000000 -0.301100
usemtl Leafs.005
s 1
f 12/1/1 4/2/1 18/3/1
f 12/1/1 14/4/1 15/5/1
f 18/3/1 13/6/1 12/1/1
f 4/2/1 3/7/1 18/3/1
f 15/5/1 16/8/1 17/9/1
f 17/9/1 4/2/1 12/1/1
f 12/1/1 15/5/1 17/9/1
usemtl Wood.006
f 2/10/2 3/11/2 4/12/2
f 5/13/3 1/14/3 8/15/3
f 13/16/4 6/17/4 5/18/4
f 12/19/5 5/20/5 11/21/5
f 14/22/6 11/23/6 10/24/6
f 15/25/7 10/26/7 9/27/7
f 8/9/8 17/28/8 16/29/8
f 17/30/9 8/31/9 1/32/9
f 3/33/10 2/34/10 7/35/10
f 18/36/11 7/37/11 6/38/11
f 1/15/2 2/10/2 4/12/2
f 5/13/3 6/39/3 7/40/3
f 10/41/3 11/42/3 5/13/3
f 8/15/3 9/10/3 10/41/3
f 2/43/3 1/14/3 7/40/3
f 8/15/3 10/41/3 5/13/3
f 7/40/3 1/14/3 5/13/3
f 12/44/4 13/16/4 5/18/4
f 14/45/5 12/19/5 11/21/5
f 15/46/6 14/22/6 10/24/6
f 16/47/7 15/25/7 9/27/7
f 9/8/8 8/9/8 16/29/8
f 4/48/9 17/30/9 1/32/9
f 18/49/10 3/33/10 7/35/10
f 13/50/11 18/36/11 6/38/11
