# Blender v2.76 (sub 0) OBJ File: ''
# www.blender.org
mtllib Brown_Waterfall_Top_01.mtl
o Mesh1_Brown_Waterfall_Top_Model
v -1.501376 -0.300026 -1.498282
v -2.281376 -0.300026 -1.498282
v -2.421376 -0.010026 -1.498282
v -2.216667 -0.010026 -1.498282
v -1.501376 -0.010026 -1.498282
v -2.281376 -0.300026 0.800687
v -2.244934 -0.300026 0.743020
v -2.384934 -0.300026 0.743020
v -2.058717 -0.300026 0.226798
v -2.421376 -0.300026 -0.422602
v -2.321275 -0.300026 -0.739582
v -2.181275 -0.300026 -0.739582
v -2.135205 -0.300026 -0.885472
v -1.501376 -0.300026 1.501718
v -2.281376 -0.300026 1.501718
v -2.162426 -0.300026 1.129854
v -2.312520 -0.160026 0.743020
v -2.421376 -0.010026 0.800687
v -2.384934 -0.010026 0.743020
v -2.384934 -0.160026 0.743020
v -2.244934 -0.160026 0.743020
v -2.149384 -0.010026 0.743020
v -1.501376 -0.010026 0.743020
v -1.501376 -0.160026 0.743020
v -2.200983 -0.010026 0.824672
v -2.302426 -0.010026 1.129854
v -2.421376 -0.010026 1.501718
v -2.212314 -0.010026 1.501718
v -2.092113 -0.010026 1.125944
v -1.501376 -0.010026 1.501718
v -1.501376 -0.010026 -0.739582
v -1.501376 -0.160026 -0.739582
v -2.068729 -0.010026 -0.878062
v -2.112460 -0.010026 -0.739582
v -2.321275 -0.010026 -0.739582
v -2.275205 -0.010026 -0.885472
v -2.248862 -0.160026 -0.739582
v -2.321275 -0.160026 -0.739582
v -2.421376 -0.160026 -0.422602
v -2.058717 -0.160026 0.226798
vt -0.110708 0.063636
vt -0.141429 0.063636
vt -0.110708 0.000000
vt -0.067276 0.344863
vt -0.090730 0.307748
vt -0.041244 0.170806
vt -0.030615 1.081720
vt 0.227273 1.018770
vt 0.227273 1.363640
vt -0.095881 -0.000000
vt 0.227273 -0.000000
vt 0.227273 0.344863
vt -0.050492 1.018770
vt -0.097859 1.363640
vt 0.127273 -0.000000
vt 0.097859 0.131818
vt -0.227273 -0.000000
vt 0.026064 0.579508
vt 0.110708 0.344863
vt -0.201382 0.104972
vt -0.167387 0.247345
vt -0.215978 0.173704
vt 0.067276 0.131818
vt 0.110708 0.063636
vt 0.174345 0.131818
vt -0.190909 0.318650
vt -0.136841 0.169029
vt 1.363640 -0.000000
vt 1.018770 0.063636
vt -0.000000 -0.000000
vt -0.095881 0.131818
vt -0.127273 -0.000000
vt -0.119302 0.195727
vt -0.138690 0.050642
vt 0.038776 0.050642
vt -0.205474 0.149482
vt -0.364565 0.149482
vt -0.342938 0.004713
vt -0.124468 1.085090
vt -0.112494 0.063636
vt 0.227273 0.063636
vt -0.050492 0.131818
vt -0.997240 0.306010
vt -1.016400 0.160894
vt -0.937610 0.230950
vt -1.084360 0.063769
vt -1.370720 0.063769
vt -1.355950 -0.081860
vt -0.227273 0.131818
vt 0.190909 0.131818
vt 0.073205 0.169029
vt 0.127273 0.318650
vt 0.174345 0.344863
vt 0.190909 0.874689
vt 0.081772 1.018770
vt 0.060831 1.085090
vt 0.127273 1.363640
vt -0.227273 1.363640
vt 0.145409 1.018770
vt -0.198395 0.247345
vt -0.232390 0.104972
vt 0.141429 0.063636
vt -0.227273 0.063636
vt -0.174345 0.344863
vt -0.190909 -0.000000
vt 0.344863 0.063636
vt 0.344863 0.131818
vt -0.000000 0.131818
vt 1.363640 0.131818
vt 1.018770 0.131818
vt -0.190909 0.131818
vt 0.227273 0.131818
vt 0.058164 0.195727
vt -0.183847 0.004713
vt -0.145409 1.018770
vt -0.190909 1.363640
vt -0.145409 0.131818
vt -0.946861 0.160894
vt -0.927698 0.306010
vt -1.069590 -0.081860
vt -0.174345 0.000000
vt 0.112494 0.063636
vt 0.081772 0.000000
vt 0.145409 0.000000
vt -0.776600 0.000000
vt -0.776600 0.063636
vt -0.927698 0.063636
vt -0.518666 -0.000000
vt -0.518666 0.063636
vt -0.856756 0.063636
vt -0.198395 0.000000
vt -0.198395 0.063636
vt -0.475966 0.063636
vt -0.026064 0.579508
vt -0.174345 0.063636
vt 0.145409 0.063636
vt -0.927698 0.000000
vt -0.856756 -0.000000
vt -0.475966 0.000000
vt -0.110708 0.344863
vt -0.190909 0.874689
vt -0.112494 1.018770
vt -0.141429 0.344863
vn 0.000000 0.000000 1.000000
vn 0.000000 1.000000 -0.000000
vn 0.000000 0.000000 -1.000000
vn -0.000000 -1.000000 -0.000000
vn -0.782700 -0.377800 -0.494600
vn 1.000000 0.000000 0.000000
vn -0.865400 -0.417800 -0.276800
vn -0.856300 -0.413400 0.309500
vn -0.866200 -0.418200 -0.273500
vn -0.880500 -0.425100 0.210000
vn -0.782700 -0.377900 -0.494600
vn -0.953600 0.000000 -0.301100
vn -0.873100 0.000000 0.487600
vn -0.845400 0.000000 -0.534200
usemtl Stone.003
s 1
f 21/1/1 17/2/1 7/3/1
usemtl Leafs.008
f 22/4/2 25/5/2 29/6/2
f 33/7/2 31/8/2 5/9/2
f 28/10/2 30/11/2 29/6/2
f 23/12/2 22/4/2 29/6/2
f 29/6/2 30/11/2 23/12/2
f 33/7/2 34/13/2 31/8/2
f 5/9/2 4/14/2 33/7/2
usemtl Wood.011
f 2/15/3 4/16/3 1/17/3
f 9/18/4 14/17/4 7/19/4
f 6/20/5 18/21/5 17/22/5
f 22/23/3 21/24/3 19/25/3
f 18/26/2 26/27/2 25/5/2
f 1/28/6 32/29/6 14/30/6
f 14/11/1 28/31/1 15/32/1
f 26/33/7 16/34/7 15/35/7
f 26/36/8 18/37/8 6/38/8
f 33/7/2 4/14/2 36/39/2
f 37/40/1 32/41/1 34/42/1
f 36/43/9 13/44/9 37/45/9
f 36/46/10 3/47/10 2/48/10
f 5/49/3 1/17/3 4/16/3
f 2/15/3 3/50/3 4/16/3
f 16/51/4 6/52/4 7/19/4
f 7/19/4 8/53/4 9/18/4
f 9/18/4 10/54/4 12/55/4
f 13/56/4 2/57/4 1/58/4
f 10/54/4 11/59/4 12/55/4
f 12/55/4 13/56/4 1/58/4
f 14/17/4 15/15/4 16/51/4
f 12/55/4 1/58/4 9/18/4
f 16/51/4 7/19/4 14/17/4
f 9/18/4 1/58/4 14/17/4
f 19/60/11 17/22/5 18/21/5
f 7/61/5 6/20/5 17/22/5
f 17/62/3 19/25/3 21/24/3
f 22/23/3 23/49/3 24/63/3
f 24/63/3 21/24/3 22/23/3
f 25/5/2 22/4/2 19/64/2
f 28/10/2 29/6/2 26/27/2
f 26/27/2 27/65/2 28/10/2
f 19/64/2 18/26/2 25/5/2
f 29/6/2 25/5/2 26/27/2
f 24/66/6 23/67/6 30/68/6
f 1/28/6 5/69/6 32/29/6
f 24/66/6 30/68/6 14/30/6
f 5/69/6 31/70/6 32/29/6
f 24/66/6 14/30/6 32/29/6
f 27/71/1 15/32/1 28/31/1
f 14/11/1 30/72/1 28/31/1
f 27/73/7 26/33/7 15/35/7
f 16/74/8 26/36/8 6/38/8
f 36/39/2 35/75/2 34/13/2
f 34/13/2 33/7/2 36/39/2
f 4/14/2 3/76/2 36/39/2
f 31/72/1 34/42/1 32/41/1
f 35/77/1 37/40/1 34/42/1
f 12/78/9 37/45/9 13/44/9
f 35/79/9 36/43/9 37/45/9
f 13/80/10 36/46/10 2/48/10
usemtl Water.003
f 8/81/1 7/3/1 17/2/1
f 37/82/3 12/83/3 11/84/3
f 10/85/12 39/86/12 38/87/12
f 9/88/13 40/89/13 39/90/13
f 8/91/14 20/92/14 40/93/14
f 32/8/2 40/94/2 24/12/2
f 20/95/1 8/81/1 17/2/1
f 38/96/3 37/82/3 11/84/3
f 11/97/12 10/85/12 38/87/12
f 10/98/13 9/88/13 39/90/13
f 9/99/14 8/91/14 40/93/14
f 21/100/2 24/12/2 40/94/2
f 32/8/2 39/101/2 40/94/2
f 38/75/2 39/101/2 37/102/2
f 40/94/2 20/64/2 17/103/2
f 17/103/2 21/100/2 40/94/2
f 37/102/2 39/101/2 32/8/2
