# Blender v2.76 (sub 0) OBJ File: ''
# www.blender.org
mtllib Brown_Cliff_End_01.mtl
o Mesh1_Brown_Cliff_End_Model
v -1.499922 -2.507624 -1.503027
v -2.639922 -2.507624 -1.503027
v -2.279922 -0.307624 -1.503027
v -1.499922 -0.307624 -1.503027
v -2.277263 -2.507624 0.222053
v -2.639922 -2.507624 -0.427347
v -2.493752 -2.507624 -0.890217
v -1.499922 -2.507624 1.496973
v -2.639922 -2.507624 1.496973
v -2.520972 -2.507624 1.125109
v -2.639922 -2.507624 0.795942
v -1.997837 -0.800024 0.222053
v -2.360497 -0.800024 -0.427347
v -2.055808 -1.154284 0.222053
v -1.499922 -0.800024 -0.427347
v -1.499922 -0.800024 0.222053
v -1.499922 -0.471044 -0.427347
v -2.306664 -0.471044 -0.427347
v -1.499922 -0.471044 -0.890217
v -2.160493 -0.471044 -0.890217
v -1.499922 -0.307624 -0.890217
v -2.133751 -0.307624 -0.890217
v -1.499922 -1.154284 0.222053
v -1.499922 -1.154284 0.795942
v -1.499922 -1.673810 0.795942
v -1.499922 -1.673810 1.125109
v -1.499922 -2.236625 1.125109
v -1.499922 -2.236625 1.496973
v -2.418468 -1.154284 0.795942
v -2.503480 -1.673810 0.795942
v -2.476627 -2.236625 1.125109
v -2.384530 -1.673810 1.125109
v -2.595577 -2.236625 1.496973
vt -0.227273 -0.000000
vt 0.290909 -0.000000
vt 0.127273 1.000000
vt 0.126064 0.579508
vt -0.227273 1.363640
vt -0.905514 0.024396
vt -0.567423 0.024396
vt -0.518343 0.645794
vt 0.227273 0.874689
vt -0.163897 0.874689
vt 0.000948 0.579508
vt -0.139428 0.925718
vt -0.163897 0.776184
vt 0.227273 0.776184
vt -0.072987 1.085090
vt -0.139428 0.874689
vt -0.060831 1.000000
vt -0.072987 0.925718
vt 0.227273 0.925718
vt -0.060831 1.085090
vt 0.227273 1.085090
vt 0.227273 1.363640
vt -1.393920 0.005253
vt -1.107560 0.005253
vt -1.072410 0.942624
vt -0.784734 0.702199
vt -1.012740 0.853542
vt -0.967127 -0.083378
vt 0.318650 0.379006
vt 0.169029 0.123181
vt 1.363640 0.000000
vt 0.000948 0.776184
vt -0.025403 0.615153
vt 0.227273 0.615153
vt -0.025403 0.579508
vt -0.190248 0.318650
vt 0.227273 0.318650
vt -0.422545 -0.057023
vt -0.113966 -0.057023
vt -0.147097 0.325593
vt -0.232610 0.099489
vt -0.377473 0.358326
vt -0.398551 -0.025143
vt -0.174822 0.379006
vt -0.216684 0.123181
vt 0.227273 0.123181
vt -0.216684 0.169029
vt -0.270752 -0.000000
vt 0.227273 0.000000
vt 0.082489 0.081999
vt -0.094976 0.081999
vt -0.088835 -0.042670
vt -0.270752 0.123181
vt -0.290909 -0.000000
vt -0.228890 0.318650
vt -0.174822 0.169029
vt -0.190248 0.615153
vt -0.228890 0.379006
vt 0.227273 0.379006
vt -0.227273 1.000000
vt 0.290909 0.874689
vt 0.224468 1.085090
vt 0.236841 0.169029
vt 0.290909 0.318650
vt 0.290909 1.363640
vt -0.505495 0.808461
vt -0.843586 0.808461
vt 0.227273 0.579508
vt 0.227273 1.000000
vt -0.127273 1.363640
vt -1.069590 1.017840
vt -1.355950 1.017840
vt -0.792103 0.853542
vt -0.746487 -0.083378
vt 1.085090 0.925718
vt 0.874689 0.925718
vt 0.874689 0.776184
vt 0.579508 0.776184
vt 0.579508 0.615153
vt 0.318650 0.615153
vt 0.169029 0.379006
vt 0.000000 0.123181
vt 0.000000 0.000000
vt 1.363640 1.000000
vt 1.085090 1.000000
vt -0.167740 0.563987
vt -0.476319 0.563987
vt -0.218382 0.358326
vt -0.239460 -0.025143
vt 0.227273 0.169029
vt 0.088631 -0.042670
vn 0.000000 0.000000 -1.000000
vn 0.000000 -1.000000 -0.000000
vn -0.864300 0.141400 0.482700
vn 0.000000 1.000000 0.000000
vn 0.000000 0.000000 1.000000
vn -0.960600 0.157200 0.229100
vn -0.942200 0.154200 -0.297500
vn 1.000000 -0.000000 0.000000
vn -0.837400 0.137000 -0.529200
vn -0.929500 0.152100 0.335900
vn -0.941100 0.154000 -0.301000
usemtl Wood.004
s 1
f 1/1/1 2/2/1 3/3/1
f 5/4/2 1/5/2 8/1/2
f 6/6/3 5/7/3 14/8/3
f 15/9/4 13/10/4 12/11/4
f 18/12/5 13/13/5 15/14/5
f 20/15/4 18/16/4 17/9/4
f 22/17/5 20/18/5 19/19/5
f 22/20/4 21/21/4 4/22/4
f 2/23/6 7/24/6 20/25/6
f 13/26/7 20/27/7 7/28/7
f 25/29/8 27/30/8 1/31/8
f 12/32/5 14/33/5 23/34/5
f 14/35/4 29/36/4 24/37/4
f 5/38/9 11/39/9 30/40/9
f 31/41/10 30/42/10 11/43/10
f 32/44/5 31/45/5 27/46/5
f 31/47/4 33/48/4 28/49/4
f 33/50/11 31/51/11 10/52/11
f 33/53/5 9/54/5 8/49/5
f 25/37/4 30/55/4 32/56/4
f 29/57/5 30/58/5 25/59/5
f 4/60/1 1/1/1 3/3/1
f 5/4/2 6/61/2 7/62/2
f 10/63/2 11/64/2 5/4/2
f 8/1/2 9/2/2 10/63/2
f 2/65/2 1/5/2 7/62/2
f 8/1/2 10/63/2 5/4/2
f 7/62/2 1/5/2 5/4/2
f 14/8/3 12/66/3 13/67/3
f 13/67/3 6/6/3 14/8/3
f 16/68/4 15/9/4 12/11/4
f 17/19/5 18/12/5 15/14/5
f 19/21/4 20/15/4 17/9/4
f 21/69/5 22/17/5 19/19/5
f 3/70/4 22/20/4 4/22/4
f 20/25/6 22/71/6 3/72/6
f 3/72/6 2/23/6 20/25/6
f 13/26/7 18/73/7 20/27/7
f 7/28/7 6/74/7 13/26/7
f 19/75/8 17/76/8 15/77/8
f 15/77/8 16/78/8 23/79/8
f 23/79/8 24/80/8 25/29/8
f 25/29/8 26/81/8 27/30/8
f 27/30/8 28/82/8 8/83/8
f 1/31/8 4/84/8 19/75/8
f 27/30/8 8/83/8 1/31/8
f 23/79/8 25/29/8 1/31/8
f 4/84/8 21/85/8 19/75/8
f 15/77/8 23/79/8 1/31/8
f 1/31/8 19/75/8 15/77/8
f 16/14/5 12/32/5 23/34/5
f 23/68/4 14/35/4 24/37/4
f 30/40/9 29/86/9 14/87/9
f 14/87/9 5/38/9 30/40/9
f 31/41/10 32/88/10 30/42/10
f 11/43/10 10/89/10 31/41/10
f 26/59/5 32/44/5 27/46/5
f 27/90/4 31/47/4 28/49/4
f 9/91/11 33/50/11 10/52/11
f 28/46/5 33/53/5 8/49/5
f 26/90/4 25/37/4 32/56/4
f 24/34/5 29/57/5 25/59/5
