# Blender v2.76 (sub 0) OBJ File: ''
# www.blender.org
mtllib Brown_Cliff_Top_Corner_01.mtl
o Mesh1_Brown_Cliff_Top_Corner_Model
v -1.501247 -0.010481 -1.496915
v -1.501247 -0.010481 -2.207853
v -2.216538 -0.010481 -1.496915
v -1.501247 -0.300481 -1.496915
v -1.501247 -0.300481 -2.276915
v -1.501247 -0.010481 -2.416915
v -2.281247 -0.300481 -1.496915
v -2.421247 -0.010481 -1.496915
vt 0.418182 0.000000
vt 0.418182 0.323153
vt 0.093050 -0.000000
vt 0.354545 -0.000000
vt 0.323153 0.131818
vt -0.000000 -0.000000
vt -0.418182 0.000000
vt -0.063636 0.000000
vt -0.418182 0.354545
vt 0.093050 0.131818
vt 0.063636 0.000000
vt 0.418182 0.418182
vt -0.546401 -0.014537
vt -0.044998 -0.014537
vt -0.000000 0.124750
vt -0.000000 0.131818
vt 0.418182 0.131818
vt -0.591398 0.124750
vn 0.000000 1.000000 0.000000
vn 1.000000 -0.000000 0.000000
vn 0.000000 -1.000000 0.000000
vn 0.000000 0.000000 1.000000
vn -0.669200 -0.323100 -0.669200
usemtl Leafs.006
s 1
f 1/1/1 2/2/1 3/3/1
usemtl Wood.007
f 5/4/2 2/5/2 4/6/2
f 4/7/3 7/8/3 5/9/3
f 4/1/4 3/10/4 7/11/4
f 3/3/1 2/2/1 6/12/1
f 5/13/5 7/14/5 8/15/5
f 1/16/2 4/6/2 2/5/2
f 5/4/2 6/17/2 2/5/2
f 8/16/4 7/11/4 3/10/4
f 4/1/4 1/17/4 3/10/4
f 8/6/1 3/3/1 6/12/1
f 6/18/5 5/13/5 8/15/5
