# Blender v2.76 (sub 0) OBJ File: ''
# www.blender.org
mtllib Brown_Cliff_Bottom_01.mtl
o Mesh1_Brown_Cliff_Bottom_Model
v -1.501810 -2.512311 -1.502488
v -2.641810 -2.512311 -1.502488
v -2.281810 -0.312311 -1.502488
v -1.501810 -0.312311 -1.502488
v -2.279151 -2.512312 0.222592
v -2.641810 -2.512312 -0.426808
v -2.495639 -2.512312 -0.889678
v -1.501810 -2.512312 1.497512
v -2.641810 -2.512312 1.497512
v -2.522860 -2.512312 1.125648
v -2.641810 -2.512312 0.796481
v -1.919151 -0.312312 0.222592
v -2.281810 -0.312312 -0.426808
v -2.281810 -0.312312 0.796481
v -2.162860 -0.312312 1.125648
v -2.281810 -0.312312 1.497512
v -1.501810 -0.312312 1.497512
v -2.135639 -0.312312 -0.889678
vt -0.227273 -0.000000
vt 0.290909 -0.000000
vt 0.127273 1.000000
vt 0.126064 0.579508
vt -0.227273 1.363640
vt -0.825729 1.034550
vt -0.905514 0.024396
vt -0.567423 0.024396
vt 0.037572 0.579508
vt 0.227273 1.363640
vt -0.060831 1.085090
vt -0.201382 0.952500
vt -0.509961 0.952500
vt -0.422545 -0.057023
vt -0.342938 0.986630
vt -0.398551 -0.025143
vt -0.239460 -0.025143
vt 0.038776 0.969403
vt -0.138690 0.969403
vt -0.088835 -0.042670
vt 0.227273 0.000000
vt 0.227273 1.000000
vt -0.127273 1.000000
vt -0.000000 1.000000
vt -0.000000 -0.000000
vt 1.363640 -0.000000
vt -1.355950 1.017840
vt -1.393920 0.005253
vt -1.107560 0.005253
vt -0.795763 0.928723
vt -1.016400 0.928723
vt -0.967127 -0.083378
vt -0.227273 1.000000
vt 0.290909 0.874689
vt 0.224468 1.085090
vt 0.236841 0.169029
vt 0.290909 0.318650
vt 0.290909 1.363640
vt -0.487638 1.034550
vt -0.127273 0.318650
vt -0.073205 0.169029
vt -0.127273 0.874689
vt -0.127273 1.363640
vt -0.127273 -0.000000
vt -0.113966 -0.057023
vt -0.183847 0.986630
vt 0.088631 -0.042670
vt -0.290909 -0.000000
vt 1.363640 1.000000
vt -1.069590 1.017840
vt -0.746487 -0.083378
vn 0.000000 0.000000 -1.000000
vn 0.000000 -1.000000 -0.000000
vn -0.864300 0.141400 0.482700
vn -0.000000 1.000000 0.000000
vn -0.837400 0.137000 -0.529200
vn -0.929500 0.152100 0.335900
vn -0.941100 0.154000 -0.301000
vn 0.000000 -0.000000 1.000000
vn 1.000000 0.000000 0.000000
vn -0.960600 0.157200 0.229100
vn -0.942200 0.154200 -0.297500
usemtl Wood.001
s 1
f 1/1/1 2/2/1 3/3/1
f 5/4/2 1/5/2 8/1/2
f 13/6/3 6/7/3 5/8/3
f 12/9/4 4/10/4 18/11/4
f 14/12/5 12/13/5 5/14/5
f 14/15/6 11/16/6 10/17/6
f 16/18/7 15/19/7 10/20/7
f 8/21/8 17/22/8 16/23/8
f 17/24/9 8/25/9 1/26/9
f 3/27/10 2/28/10 7/29/10
f 13/30/11 18/31/11 7/32/11
f 4/33/1 1/1/1 3/3/1
f 5/4/2 6/34/2 7/35/2
f 10/36/2 11/37/2 5/4/2
f 8/1/2 9/2/2 10/36/2
f 2/38/2 1/5/2 7/35/2
f 8/1/2 10/36/2 5/4/2
f 7/35/2 1/5/2 5/4/2
f 12/39/3 13/6/3 5/8/3
f 12/9/4 14/40/4 15/41/4
f 18/11/4 13/42/4 12/9/4
f 4/10/4 3/43/4 18/11/4
f 15/41/4 16/44/4 17/21/4
f 17/21/4 4/10/4 12/9/4
f 12/9/4 15/41/4 17/21/4
f 11/45/5 14/12/5 5/14/5
f 15/46/6 14/15/6 10/17/6
f 9/47/7 16/18/7 10/20/7
f 9/48/8 8/21/8 16/23/8
f 4/49/9 17/24/9 1/26/9
f 18/50/10 3/27/10 7/29/10
f 6/51/11 13/30/11 7/32/11
