# Blender v2.76 (sub 0) OBJ File: ''
# www.blender.org
mtllib Brown_Waterfall_01.mtl
o Mesh1_Brown_Waterfall_Model
v 1.499285 -2.509616 -1.496739
v 1.499285 -2.509616 -2.276739
v 1.499285 -0.309616 -2.276738
v 1.499285 -0.309616 -1.496738
v -0.799684 -2.509616 -2.276739
v -0.742017 -2.509616 -2.240297
v -0.742017 -2.509616 -2.380296
v -0.225795 -2.509616 -2.054080
v 0.423605 -2.509616 -2.416739
v 0.740585 -2.509616 -2.316638
v 0.740585 -2.509616 -2.176638
v 0.886475 -2.509616 -2.130568
v -1.500715 -2.509616 -1.496739
v -1.500715 -2.509616 -2.276739
v -1.128851 -2.509616 -2.157789
v -0.799684 -0.309616 -2.276738
v -0.742017 -0.309616 -2.240296
v 0.886475 -0.309616 -2.130568
v 0.740585 -0.309616 -2.176637
v 0.740585 -0.309616 -2.316638
v 0.423605 -0.309616 -2.416739
v -0.225795 -0.309616 -2.054080
v -0.742017 -0.309616 -2.380296
v -1.128851 -0.309616 -2.157789
v -1.500715 -0.309616 -2.276738
v -1.500715 -0.309616 -1.496738
vt 0.354545 0.000000
vt 0.354545 1.000000
vt -0.000000 1.000000
vt -0.579508 0.253337
vt -0.000000 -0.000000
vt -0.344863 0.337981
vt -0.110979 1.000000
vt -0.110979 0.000000
vt -0.079971 0.000000
vt 0.344863 0.337981
vt 0.169029 0.300477
vt -0.878423 0.000000
vt -0.878423 1.000000
vt -0.947964 1.000000
vt -1.408690 1.000000
vt -1.408690 0.000000
vt -1.122320 0.000000
vt -0.420178 1.000000
vt -0.420178 0.000000
vt -0.261087 0.000000
vt -0.069447 1.000000
vt -0.069447 0.000000
vt 0.108019 0.000000
vt -0.354545 1.000000
vt 1.363640 0.000000
vt -0.169029 0.300477
vt -0.318650 0.354545
vt -0.344863 0.401617
vt -0.874689 0.418182
vt -1.018770 0.309045
vt -1.085090 0.288104
vt -1.363640 0.354545
vt -1.363640 0.000000
vt -1.018770 0.372682
vt -0.000000 0.354545
vt -0.079971 1.000000
vt 1.018770 0.309045
vt 1.018770 0.372682
vt 0.874689 0.418182
vt 1.363640 0.354545
vt 1.085090 0.288104
vt 0.579508 0.253337
vt 0.344863 0.401617
vt 0.318650 0.354545
vt -0.947964 0.000000
vt -1.122320 1.000000
vt -0.261087 1.000000
vt 0.108019 1.000000
vt -0.354545 0.000000
vt 1.363640 1.000000
vt 0.309045 0.000000
vt 0.372682 0.000000
vt 0.372682 1.000000
vt -0.708161 1.000000
vt -0.859260 1.000000
vt -0.859260 0.000000
vt -0.629478 1.000000
vt -0.967569 1.000000
vt -0.967569 0.000000
vt -0.076984 1.000000
vt -0.354555 1.000000
vt -0.354555 0.000000
vt -0.337981 1.000000
vt -0.401617 1.000000
vt -0.401617 0.000000
vt 0.309045 1.000000
vt -0.708161 0.000000
vt -0.629478 0.000000
vt -0.076984 0.000000
vt -0.337981 0.000000
vn 1.000000 0.000000 0.000000
vn 0.000000 -1.000000 0.000000
vn 0.534200 0.000000 -0.845300
vn 0.534200 0.000000 -0.845400
vn 0.000000 1.000000 -0.000000
vn 0.301100 0.000000 -0.953600
vn -0.232000 0.000000 -0.972700
vn -0.339900 0.000000 -0.940500
vn 0.304700 0.000000 -0.952500
vn -1.000000 0.000000 0.000000
vn 0.000000 -0.000000 1.000000
vn -0.487600 0.000000 -0.873100
usemtl Wood.010
s 1
f 2/1/1 3/2/1 4/3/1
f 8/4/2 13/5/2 6/6/2
f 17/7/3 6/8/4 5/9/4
f 17/10/5 24/11/5 26/5/5
f 11/12/6 19/13/6 18/14/6
f 3/15/7 2/16/7 12/17/7
f 16/18/8 5/19/8 15/20/8
f 24/21/9 15/22/9 14/23/9
f 13/5/10 26/3/10 25/24/10
f 26/3/11 13/5/11 1/25/11
f 1/5/1 2/1/1 4/3/1
f 15/26/2 5/27/2 6/6/2
f 6/6/2 7/28/2 8/4/2
f 8/4/2 9/29/2 11/30/2
f 12/31/2 2/32/2 1/33/2
f 9/29/2 10/34/2 11/30/2
f 11/30/2 12/31/2 1/33/2
f 13/5/2 14/35/2 15/26/2
f 11/30/2 1/33/2 8/4/2
f 15/26/2 6/6/2 13/5/2
f 8/4/2 1/33/2 13/5/2
f 16/36/3 17/7/3 5/9/4
f 19/37/5 20/38/5 21/39/5
f 4/25/5 3/40/5 18/41/5
f 19/37/5 21/39/5 22/42/5
f 4/25/5 18/41/5 19/37/5
f 24/11/5 25/35/5 26/5/5
f 26/5/5 4/25/5 22/42/5
f 22/42/5 23/43/5 17/10/5
f 4/25/5 19/37/5 22/42/5
f 16/44/5 24/11/5 17/10/5
f 26/5/5 22/42/5 17/10/5
f 12/45/6 11/12/6 18/14/6
f 18/46/7 3/15/7 12/17/7
f 24/47/8 16/18/8 15/20/8
f 25/48/9 24/21/9 14/23/9
f 14/49/10 13/5/10 25/24/10
f 4/50/11 26/3/11 1/25/11
usemtl Water.002
f 11/51/1 10/52/1 20/53/1
f 21/54/6 20/55/6 10/56/6
f 22/57/12 21/58/12 9/59/12
f 23/60/4 22/61/4 8/62/4
f 17/63/10 23/64/10 7/65/10
f 19/66/1 11/51/1 20/53/1
f 9/67/6 21/54/6 10/56/6
f 8/68/12 22/57/12 9/59/12
f 7/69/4 23/60/4 8/62/4
f 6/70/10 17/63/10 7/65/10
