# Blender v2.76 (sub 0) OBJ File: ''
# www.blender.org
mtllib Brown_Cliff_01.mtl
o Mesh1_Brown_Cliff_Model
v -1.502845 -2.506293 -1.504723
v -2.282845 -2.506293 -1.504723
v -2.282845 -0.306293 -1.504723
v -1.502845 -0.306293 -1.504723
v -1.920186 -2.506293 0.220357
v -2.282845 -2.506293 -0.429043
v -2.136674 -2.506293 -0.891913
v -1.502845 -2.506293 1.495277
v -2.282845 -2.506293 1.495277
v -2.163895 -2.506293 1.123413
v -2.282845 -2.506293 0.794246
v -1.920186 -0.306293 0.220357
v -2.282845 -0.306293 -0.429043
v -2.282845 -0.306293 0.794246
v -2.163895 -0.306293 1.123413
v -2.282845 -0.306293 1.495277
v -1.502845 -0.306293 1.495277
v -2.136674 -0.306293 -0.891913
vt 0.127273 -0.000000
vt 0.127273 1.000000
vt -0.227273 1.000000
vt -0.037572 0.579508
vt -0.227273 1.363640
vt -0.227273 0.000000
vt -0.825729 1.000000
vt -0.825729 0.000000
vt -0.487638 0.000000
vt 0.037572 0.579508
vt 0.227273 1.363640
vt -0.060831 1.085090
vt -0.509961 1.000000
vt -0.509961 0.000000
vt -0.201382 0.000000
vt -0.342938 1.000000
vt -0.342938 0.000000
vt -0.183847 -0.000000
vt -0.138690 1.000000
vt -0.138690 -0.000000
vt 0.038776 -0.000000
vt 0.227273 0.000000
vt 0.227273 1.000000
vt -0.127273 1.000000
vt -0.000000 1.000000
vt -0.000000 -0.000000
vt 1.363640 -0.000000
vt -1.355950 1.000000
vt -1.355950 -0.000000
vt -1.069590 0.000000
vt -1.016400 1.000000
vt -1.016400 -0.000000
vt -0.795763 0.000000
vt 0.127273 0.874689
vt 0.060831 1.085090
vt 0.073205 0.169029
vt 0.127273 0.318650
vt 0.127273 1.363640
vt -0.487638 1.000000
vt -0.127273 0.318650
vt -0.073205 0.169029
vt -0.127273 0.874689
vt -0.127273 1.363640
vt -0.127273 0.000000
vt -0.201382 1.000000
vt -0.183847 1.000000
vt 0.038776 1.000000
vt 1.363640 1.000000
vt -1.069590 1.000000
vt -0.795763 1.000000
vn 0.000000 0.000000 -1.000000
vn 0.000000 -1.000000 0.000000
vn -0.873100 -0.000000 0.487600
vn 0.000000 1.000000 0.000000
vn -0.845400 0.000000 -0.534200
vn -0.940500 -0.000000 0.339900
vn -0.952500 0.000000 -0.304700
vn 0.000000 0.000000 1.000000
vn 1.000000 0.000000 0.000000
vn -0.972700 0.000000 0.232000
vn -0.953600 -0.000000 -0.301100
usemtl Wood
s 1
f 2/1/1 3/2/1 4/3/1
f 5/4/2 1/5/2 8/6/2
f 13/7/3 6/8/3 5/9/3
f 12/10/4 4/11/4 18/12/4
f 12/13/5 5/14/5 11/15/5
f 14/16/6 11/17/6 10/18/6
f 15/19/7 10/20/7 9/21/7
f 8/22/8 17/23/8 16/24/8
f 17/25/9 8/26/9 1/27/9
f 3/28/10 2/29/10 7/30/10
f 18/31/11 7/32/11 6/33/11
f 1/6/1 2/1/1 4/3/1
f 5/4/2 6/34/2 7/35/2
f 10/36/2 11/37/2 5/4/2
f 8/6/2 9/1/2 10/36/2
f 2/38/2 1/5/2 7/35/2
f 8/6/2 10/36/2 5/4/2
f 7/35/2 1/5/2 5/4/2
f 12/39/3 13/7/3 5/9/3
f 12/10/4 14/40/4 15/41/4
f 18/12/4 13/42/4 12/10/4
f 4/11/4 3/43/4 18/12/4
f 15/41/4 16/44/4 17/22/4
f 17/22/4 4/11/4 12/10/4
f 12/10/4 15/41/4 17/22/4
f 14/45/5 12/13/5 11/15/5
f 15/46/6 14/16/6 10/18/6
f 16/47/7 15/19/7 9/21/7
f 9/44/8 8/22/8 16/24/8
f 4/48/9 17/25/9 1/27/9
f 18/49/10 3/28/10 7/30/10
f 13/50/11 18/31/11 6/33/11
