# Blender v2.76 (sub 0) OBJ File: ''
# www.blender.org
mtllib Plate_Grass_01.mtl
o Mesh1_Plate_Grass_Model
v -1.500000 -0.309516 1.500000
v 1.500000 -0.309516 1.500000
v 1.500000 -0.009516 1.500000
v -1.500000 -0.009516 1.500000
v 1.500000 -0.309516 -1.500000
v -1.500000 -0.309516 -1.500000
v 1.500000 -0.009516 -1.500000
v -1.500000 -0.009516 -1.500000
vt 0.000000 0.000000
vt 1.363640 0.000000
vt 1.363640 0.136364
vt 0.000000 0.136364
vt -1.363640 1.363640
vt -1.363640 0.000000
vt 0.000000 1.363640
vt -1.363640 0.136364
vt 1.363640 1.363640
vn 0.000000 0.000000 1.000000
vn 0.000000 -1.000000 -0.000000
vn 1.000000 0.000000 0.000000
vn 0.000000 0.000000 -1.000000
vn -1.000000 0.000000 0.000000
vn 0.000000 1.000000 0.000000
usemtl Stone
s 1
f 1/1/1 2/2/1 3/3/1 4/4/1
f 5/5/2 2/6/2 1/1/2 6/7/2
f 2/1/3 5/2/3 7/3/3 3/4/3
f 5/6/4 6/1/4 8/4/4 7/8/4
f 6/6/5 1/1/5 4/4/5 8/8/5
usemtl Leafs
f 3/2/6 7/9/6 8/7/6 4/1/6
