# Blender v2.76 (sub 0) OBJ File: ''
# www.blender.org
mtllib Wood_Fence_01.mtl
o Mesh1_Wood_Fence_Model
v 0.250000 1.105444 1.500000
v 0.250000 1.105444 1.000000
v -0.250000 1.105444 1.000000
v -0.250000 1.105444 1.500000
v 0.250000 0.005444 1.500000
v 0.250000 0.005444 1.000000
v -0.250000 0.005444 1.000000
v -0.250000 0.005444 1.500000
v -0.150000 0.505444 1.000000
v -0.150000 1.005444 1.000000
v 0.150000 1.005444 1.000000
v 0.150000 0.505444 1.000000
v -0.150000 0.505444 -1.000000
v 0.150000 0.505444 -1.000000
v -0.150000 1.005445 -1.000000
v -0.250000 1.105444 -1.000000
v -0.250000 0.005444 -1.000000
v 0.250000 0.005444 -1.000000
v 0.250000 1.105444 -1.000000
v 0.250000 1.105444 -1.500000
v 0.250000 0.005444 -1.500000
v -0.250000 1.105444 -1.500000
v -0.250000 0.005444 -1.500000
v 0.150000 1.005445 -1.000000
vt 0.227273 0.000000
vt 0.227273 0.227273
vt 0.000000 0.227273
vt 0.000000 0.000000
vt 0.227273 0.500000
vt 0.000000 0.500000
vt -0.227273 0.227273
vt -0.227273 0.000000
vt -0.045454 0.227273
vt -0.227273 0.500000
vt -0.045454 0.454545
vt -0.181818 0.454545
vt -0.181818 0.227273
vt -0.045454 1.136360
vt -0.181818 1.136360
vt -1.136360 0.454545
vt -1.136360 0.227273
vt -0.227273 0.454545
vt 0.045454 0.227273
vt 0.045454 0.454545
vt 0.181818 0.227273
vt 1.363640 0.500000
vt 1.136360 0.500000
vt 1.136360 0.000000
vt 1.363640 0.000000
vt 0.000000 1.363640
vt 0.000000 1.136360
vt 0.227273 1.136360
vt 0.227273 1.363640
vt -1.363640 0.000000
vt -1.136360 0.000000
vt -1.136360 0.500000
vt -1.363640 0.500000
vt -0.227273 1.136360
vt -0.227273 1.363640
vt 0.181818 0.454545
vt 0.227273 0.454545
vt 1.136360 0.227273
vt 1.136360 0.454545
vt 0.181818 1.136360
vt 0.045454 1.136360
vn 0.000000 1.000000 0.000000
vn 1.000000 0.000000 0.000000
vn 0.000000 -1.000000 0.000000
vn 0.000000 0.000000 -1.000000
vn -1.000000 0.000000 0.000000
vn 0.000000 0.000000 1.000000
usemtl Wood
s 1
f 1/1/1 2/2/1 3/3/1 4/4/1
f 5/4/2 6/1/2 2/5/2 1/6/2
f 7/3/3 6/7/3 5/8/3 8/4/3
f 7/4/4 9/9/4 6/8/4
f 9/9/4 7/4/4 3/6/4
f 4/6/5 3/10/5 7/8/5 8/4/5
f 8/4/6 5/1/6 1/5/6 4/6/6
f 9/9/4 3/6/4 10/11/4
f 10/11/4 3/6/4 11/12/4
f 2/10/4 11/12/4 3/6/4
f 2/10/4 12/13/4 11/12/4
f 6/8/4 12/13/4 2/10/4
f 12/13/4 6/8/4 9/9/4
f 9/9/3 13/14/3 14/15/3 12/13/3
f 15/16/5 13/17/5 9/7/5 10/18/5
f 16/6/6 13/19/6 15/20/6
f 17/4/6 13/19/6 16/6/6
f 13/19/6 17/4/6 14/21/6
f 18/1/6 14/21/6 17/4/6
f 14/21/6 18/1/6 19/5/6
f 20/22/2 19/23/2 18/24/2 21/25/2
f 22/26/1 16/27/1 19/28/1 20/29/1
f 23/30/5 17/31/5 16/32/5 22/33/5
f 18/34/3 17/27/3 23/26/3 21/35/3
f 21/8/4 23/4/4 22/6/4 20/10/4
f 16/6/6 15/20/6 19/5/6
f 24/36/6 19/5/6 15/20/6
f 14/21/6 19/5/6 24/36/6
f 11/37/2 12/2/2 14/38/2 24/39/2
f 24/40/1 15/41/1 10/19/1 11/21/1
